<?xml version="1.0" encoding="UTF-8"?>
<svg width="123px" height="95px" viewBox="0 0 123 95" version="1.1" xmlns="http://www.w3.org/2000/svg" xmlns:xlink="http://www.w3.org/1999/xlink">
    <title>Group</title>
    <g id="Page-1" stroke="none" stroke-width="1" fill="none" fill-rule="evenodd">
        <g id="Group" transform="translate(0.538084, 0.494745)" fill="#000000" fill-rule="nonzero">
            <g id="p2-link" transform="translate(0.000000, 0.000000)">
                <path d="M45.9280751,0 C51.4314809,4.12423358 54.9666983,10.269781 55.7815534,17.1058394 C56.3143432,20.6964964 55.706336,24.3687591 56.195249,27.9405839 C59.1099229,29.7233577 62.8269157,30.5080292 65.6914447,32.8118248 C68.5622418,35.1470073 71.1509737,38.2040876 72.523691,41.6691971 C73.5641983,44.4249635 73.2884012,47.4067153 71.3390171,49.6916788 C68.631191,52.8931387 64.0554664,53.6527007 60.2820606,54.939562 C60.3823505,59.2583942 61.3915171,63.4767883 60.5703939,67.5633577 C60.0125316,70.4635036 58.6022055,72.7108029 57.4802128,75.3724088 C56.032278,78.5048175 56.3331476,82.7106569 58.0130026,85.6861314 C59.492278,87.3182482 61.7487997,88.2159124 63.2406113,89.8919708 C63.6480389,90.7582482 63.6731113,91.8442336 63.6355026,92.7921168 C62.2189084,94.1919708 60.087749,94.0978102 58.2449229,94.110365 C56.6214809,94.0475912 54.6219519,93.959708 53.1990896,93.0871533 C51.1995606,91.059562 50.9676403,86.9855474 48.6421693,85.14 C46.8494881,83.9347445 44.7935461,83.2630657 43.0510099,81.9573723 C42.5746331,79.1262774 43.2139809,75.8369343 42.4492708,72.9807299 C41.596807,69.9362044 39.2650679,67.2934307 36.3127853,66.1321168 C34.1440171,65.3976642 31.9877853,65.7680292 29.7939447,66.1572263 C32.0567345,67.2055474 34.2004302,68.5112409 36.3817345,69.7164964 C39.1146331,71.160292 39.8605389,74.82 39.8981476,77.6385401 C39.6411548,80.7583942 37.9048867,83.7589781 36.4820244,86.4394161 C39.4969881,86.6340146 42.8880389,86.4143066 45.4767708,88.259854 C46.9059012,89.5843796 47.6643432,91.7061314 48.3914447,93.470073 C42.0042345,94.5058394 35.215865,93.8718248 28.7409012,94.0224818 C24.9110824,93.959708 20.943365,94.330073 17.1574229,93.7588321 C13.7287635,93.0934307 11.9924954,89.8166423 10.1371331,87.2178102 C7.62361858,87.0608759 4.3265896,87.4437956 2.37093742,85.5856934 C-0.0297509811,83.3948905 -0.875946633,78.7182482 1.09850989,76.050365 C2.68434322,74.5061314 5.64916206,74.4559124 7.70510409,73.909781 C8.25669829,70.5576642 8.51369105,67.3624818 10.0681838,64.2677372 C13.2022418,57.8648175 18.4173142,52.5667153 25.1116621,49.9553285 C29.3614447,48.0909489 34.244307,47.6829197 38.3311186,45.5548905 C40.5312273,44.4249635 40.9010461,41.9516788 41.5090534,39.7859854 C41.9666258,37.5637956 42.7250679,35.1658394 42.5997055,32.8871533 C42.1107925,31.3554745 40.5625679,30.0937226 39.5032563,28.9261314 C36.2375679,25.749781 33.648836,22.1528467 31.6116983,18.0788321 C29.4805389,13.860438 27.7066621,8.90759124 28.4651041,4.1179562 C28.6280751,3.1010219 29.5369519,2.32890511 30.5774592,2.4670073 C32.3262635,2.68043796 34.031191,3.78525547 35.435249,4.80218978 C38.7009374,7.27547445 41.4275679,10.6087591 43.8784012,13.8729927 C47.2005026,18.3236496 49.275249,23.1760584 51.4565534,28.2356204 C52.0645606,28.1979562 52.6161548,28.009635 53.1238722,27.6706569 C52.1836548,23.8037956 51.2371693,20.1189781 49.2251041,16.6413139 C47.488836,13.490073 44.6556476,10.4141606 43.6778215,6.96788321 C42.894307,4.26233577 44.3171693,2.03386861 45.9280751,0 Z M57.7810824,36.7477372 C56.5399954,37.620292 56.1889809,38.9887591 57.060249,40.2756204 C57.8061548,42.5417518 61.8240171,41.3929927 61.6673142,39.1017518 C61.9180389,37.0992701 59.3230389,35.2725547 57.7810824,36.7477372 Z" id="p2"></path>
            </g>
            <g id="p3-link" transform="translate(92.324669, 10.746861)">
                <path d="M2.77050725,0 C9.35202899,4.06773723 11.514529,11.6194161 11.188587,18.9890511 C8.71894928,17.4950365 6.98268116,15.4925547 5.70398551,12.9188321 C4.13068841,9.72364964 1.25362319,7.1750365 0,3.87313869 C0.0877536232,2.43562044 1.7676087,0.954160584 2.77050725,0 Z" id="p3"></path>
            </g>
            <g id="p4-link" transform="translate(60.842090, 13.761796)">
                <path d="M21.7607313,0.0547000744 C24.4309486,0.487838761 26.9946081,1.92535701 29.0818907,3.60769278 C34.1214559,7.69426212 36.3717095,13.0425833 38.8413472,18.8428753 C43.0535211,19.2383497 46.9773617,19.4078388 50.8385211,21.3601015 C55.4330501,23.5006855 58.2348979,28.214992 60.240695,32.665649 C61.2059849,34.8376198 61.3877602,37.0347001 59.9084849,39.0246271 C57.3949704,42.5336782 52.8819269,43.3309045 49.0082313,44.4608315 C48.563195,49.4513424 48.9768907,54.8373278 46.3129414,59.3068169 C44.6894994,62.2132402 42.1571805,63.8579118 39.9821443,66.2244811 C38.5404776,67.6117804 38.7912023,69.9092986 39.317724,71.6481307 C40.2328689,73.4497366 42.5583399,74.654992 43.8558399,76.1741161 C44.3196805,76.6763059 44.181782,77.5865249 44.0062747,78.1828753 C43.5236298,79.3692986 41.749753,79.4320723 40.6653689,79.6329482 C38.6344994,79.7961599 36.020695,79.9028753 34.2217457,78.7980577 C31.8461298,76.8960139 31.0563472,73.03543 29.0254776,70.8069628 C26.5683762,70.4177658 23.6599704,72.1314884 21.4974704,73.1923643 C22.613195,74.215576 23.691311,75.295284 24.6189921,76.4942621 C24.9512023,77.9066709 24.4810936,79.4006855 22.8451153,79.5325103 C17.529753,80.0598096 12.0764921,79.5890066 6.73605734,79.5701745 C6.30355734,76.9901745 6.41011531,73.6694446 4.19747038,71.8929482 C2.74326748,70.3675468 -0.196478893,69.1748461 0.0103689334,66.7329482 C-0.121261501,62.6275468 2.81848488,59.5076928 3.83391966,55.6533862 C4.83055009,52.2008315 4.27268777,48.9617074 4.65504285,45.5217074 C4.66757908,44.8814154 4.93083995,44.4168899 5.45109357,44.1344081 C7.92073125,42.4960139 11.1362747,41.4602475 13.0856588,39.1878388 C14.9222168,36.9530942 15.8624342,33.9713424 17.5234849,31.5922183 C19.8802965,30.8201015 22.9642095,32.1320723 25.3586298,32.4961599 C26.4242095,32.665649 28.3610573,33.0987877 29.0756226,32.0441891 C30.6175791,30.135868 31.4073617,27.5307585 31.802253,25.1390796 C32.1971443,23.745503 30.8056226,22.4837512 29.9782313,21.5295906 C27.5211298,19.1065249 25.0138834,16.8843351 23.2337385,13.8774738 C21.1715284,10.4625833 18.9588834,6.20652489 19.0152965,2.13878767 C18.7896443,0.519225622 20.3754776,-0.215226933 21.7607313,0.0547000744 Z M47.1779414,28.0643351 C46.3254776,29.7906125 46.3881588,30.8640431 47.2907675,32.5401015 C49.4783399,32.8288607 50.130224,32.2387877 51.0391008,30.3116344 C50.3057313,28.1836052 49.3404414,27.8383497 47.1779414,28.0643351 Z" id="p4"></path>
            </g>
        </g>
    </g>
</svg>