<?xml version="1.0" encoding="UTF-8"?>
<svg width="156px" height="156px" viewBox="0 0 156 156" version="1.1" xmlns="http://www.w3.org/2000/svg" xmlns:xlink="http://www.w3.org/1999/xlink">
    <title>Group 2</title>
    <defs>
        <rect id="path-1" x="0" y="0" width="156" height="156" rx="35"></rect>
    </defs>
    <g id="Page-1" stroke="none" stroke-width="1" fill="none" fill-rule="evenodd">
        <g id="Group-2">
            <mask id="mask-2" fill="white">
                <use xlink:href="#path-1"></use>
            </mask>
            <g id="Rectangle"></g>
            <g id="icon" mask="url(#mask-2)">
                <g transform="translate(-8.000000, -8.000000)" id="Group">
                    <g>
                        <g id="p0-link" fill="#000000" fill-rule="nonzero" stroke="#F6F6F5">
                            <path d="M0,0 L173,0 L173,172 L0,172 L0,0 Z M5.76039855,50.2189781 C4.84525362,62.2213139 6.02365942,74.0164964 5.82307971,86 C5.90456522,101.693431 5.72278986,117.399416 5.87949275,133.092847 C6.08634058,147.725401 17.9957609,160.625401 32.167971,163.16146 C36.004058,163.814307 40.166087,163.550657 44.0648551,163.563212 C69.9082971,163.512993 95.7580072,163.588321 121.601449,163.550657 C128.740833,163.487883 135.265942,164.11562 142.248623,162.125693 C149.801703,160.229927 156.025942,155.000876 160.350942,148.667007 C163.998986,143.281022 165.233804,137.016204 165.196196,130.594453 C165.152319,101.705985 165.164855,72.8237956 165.171123,43.9416058 C165.146051,39.3967883 165.572283,35.2788321 164.086739,30.8972263 C161.823949,24.5508029 158.940616,18.700292 153.462283,14.5383942 C147.833514,9.93708029 141.145435,8.26729927 134.068732,7.43868613 C129.95058,7.04948905 125.738406,7.26919708 121.601449,7.25664234 C94.6485507,7.22525547 67.6893841,7.26919708 40.7364855,7.23153285 C32.5628623,7.2189781 24.5584783,9.24029197 17.9832246,14.2433577 C12.4046014,18.3048175 8.77536232,24.3059854 6.9576087,30.9035036 C5.24014493,36.9611679 6.09887681,43.86 5.76039855,50.2189781 Z" id="p0"></path>
                        </g>
                        <g id="p1-link" transform="translate(5.407699, 7.206082)" fill="#000000" fill-rule="nonzero" stroke="#F8B189">
                            <path d="M35.3287863,0.0254504398 C62.2816849,0.0631146734 89.2408515,0.0191730676 116.19375,0.0505599289 C120.330707,0.0631146734 124.542881,-0.156593356 128.661033,0.232603725 C135.737736,1.06121686 142.425815,2.73099789 148.054583,7.33231175 C153.532917,11.4942096 156.41625,17.3447205 158.67904,23.6911439 C160.164583,28.0727497 159.738352,32.1907059 159.763424,36.7355234 C159.757156,65.6177132 159.74462,94.499903 159.788496,123.38837 C159.826105,129.810122 158.591286,136.074939 154.943243,141.460925 C150.618243,147.794794 144.394004,153.023845 136.840924,154.919611 C129.858243,156.909538 123.333134,156.281801 116.19375,156.344575 C90.350308,156.382239 64.5005979,156.30691 38.6571559,156.357129 C34.7583878,156.344575 30.5963588,156.608224 26.7602718,155.955377 C12.5880617,153.419319 0.67864138,140.519319 0.471793554,125.886764 C0.315090655,110.193334 0.496866018,94.4873483 0.41538051,78.7939176 C0.615960221,66.8104139 -0.562445577,55.0152315 0.352699351,43.0128957 C0.691177612,36.6539176 -0.167554272,29.7550855 1.5499095,23.6974212 C3.36766312,17.099903 6.99690225,11.0987351 12.5755254,7.03727526 C19.1507791,2.03420956 27.1551631,0.0128956953 35.3287863,0.0254504398 Z M72.2542573,57.9593191 C71.7465399,58.2982972 71.1949457,58.4866183 70.5869385,58.5242826 C68.4056341,53.4647205 66.3308878,48.6123118 63.0087863,44.1616548 C60.557953,40.8974212 57.8313225,37.5641366 54.5656341,35.0908519 C53.1615762,34.0739176 51.4566486,32.9691001 49.7078443,32.7556694 C48.667337,32.6175672 47.7584602,33.389684 47.5954892,34.4066183 C46.8370472,39.1962534 48.610924,44.1491001 50.7420834,48.3674942 C52.7792211,52.4415088 55.367953,56.0384431 58.6336414,59.2147935 C59.692953,60.3823847 61.2411776,61.6441366 61.7300907,63.1758154 C61.855453,65.4545015 61.0970109,67.8524577 60.6394385,70.0746475 C60.0314312,72.240341 59.6616124,74.7136256 57.4615037,75.8435526 C53.3746921,77.9715818 48.4918298,78.379611 44.2420472,80.2439906 C37.5476994,82.8553774 32.3326269,88.1534796 29.1985689,94.5563993 C27.6440762,97.6511439 27.3870834,100.846326 26.8354892,104.198443 C24.7795472,104.744575 21.8147283,104.794794 20.228895,106.339027 C18.2544385,109.00691 19.1006341,113.683553 21.5013225,115.874356 C23.4569747,117.732458 26.7540037,117.349538 29.2675182,117.506472 C31.1228805,120.105304 32.8591486,123.382093 36.287808,124.047494 C40.0737501,124.618735 44.0414675,124.24837 47.8712863,124.311144 C54.3462501,124.160487 61.1346196,124.794502 67.5218298,123.758735 C66.7947283,121.994794 66.0362863,119.873042 64.6071559,118.548516 C62.018424,116.702969 58.6273733,116.922677 55.6124095,116.728078 C57.0352718,114.04764 58.7715399,111.047056 59.0285327,107.927202 C58.990924,105.108662 58.2450182,101.448954 55.5121196,100.005158 C53.3308153,98.799903 51.1871196,97.4942096 48.9243298,96.4458884 C51.1181704,96.0566913 53.2744022,95.6863264 55.4431704,96.4207789 C58.395453,97.5820928 60.7271921,100.224866 61.5796559,103.269392 C62.344366,106.125596 61.7050182,109.414939 62.181395,112.246034 C63.9239312,113.551728 65.9798733,114.223407 67.7725544,115.428662 C70.0980254,117.27421 70.3299457,121.348224 72.3294747,123.375815 C73.752337,124.24837 75.751866,124.336253 77.375308,124.399027 C79.2181341,124.386472 81.3492936,124.480633 82.7658878,123.080779 C82.8034965,122.132896 82.778424,121.04691 82.3709965,120.180633 C80.8791849,118.504575 78.6226631,117.60691 77.1433878,115.974794 C75.4635327,112.999319 75.1626631,108.79348 76.6105979,105.661071 C77.7325907,102.999465 79.1429167,100.752166 79.7007791,97.8520198 C80.5219022,93.7654504 79.5127356,89.5470563 79.4124457,85.2282242 C83.1858515,83.9413628 87.7615762,83.1818008 90.4694022,79.980341 C92.4187863,77.6953774 92.6945834,74.7136256 91.6540762,71.9578592 C90.2813588,68.4927497 87.6926269,65.4356694 84.8218298,63.1004869 C81.9573008,60.7966913 78.240308,60.0120198 75.3256341,58.2292461 C74.8367211,54.6574212 75.4447283,50.9851585 74.9119385,47.3945015 C74.0970834,40.5584431 70.561866,34.4128957 65.0584602,30.2886621 C63.4475544,32.3225307 62.0246921,34.5509979 62.8082066,37.2565453 C63.7860327,40.7028227 66.6192211,43.7787351 68.3554892,46.929976 C70.3675544,50.4076402 71.3140399,54.0924577 72.2542573,57.9593191 Z M122.643641,60.0245745 C122.969583,52.6549395 120.807083,45.1032607 114.225562,41.0355234 C113.222663,41.989684 111.542808,43.4711439 111.455054,44.9086621 C112.708678,48.2105599 115.585743,50.7591731 117.15904,53.9543555 C118.437736,56.5280782 120.174004,58.5305599 122.643641,60.0245745 Z M86.7085327,123.620633 C92.0489675,123.639465 97.5022283,124.110268 102.817591,123.582969 C104.453569,123.451144 104.923678,121.957129 104.591467,120.544721 C103.663786,119.345742 102.58567,118.266034 101.469946,117.242823 C103.632446,116.181947 106.540852,114.468224 108.997953,114.857421 C111.028823,117.085888 111.818605,120.946472 114.194221,122.848516 C115.99317,123.953334 118.606975,123.846618 120.637844,123.683407 C121.722228,123.482531 123.496105,123.419757 123.97875,122.233334 C124.154257,121.636983 124.292156,120.726764 123.828315,120.224575 C122.530815,118.70545 120.205344,117.500195 119.290199,115.698589 C118.763678,113.959757 118.512953,111.662239 119.95462,110.274939 C122.129656,107.90837 124.661975,106.263699 126.285417,103.357275 C128.949366,98.8877862 128.53567,93.5018008 128.980707,88.5112899 C132.854402,87.3813628 137.367446,86.5841366 139.88096,83.0750855 C141.360236,81.0851585 141.17846,78.8880782 140.21317,76.7161074 C138.207373,72.2654504 135.405525,67.5511439 130.810996,65.4105599 C126.949837,63.4582972 123.025996,63.2888081 118.813823,62.8933337 C116.344185,57.0930417 114.093931,51.7447205 109.054366,47.6581512 C106.967083,45.9758154 104.403424,44.5382972 101.733207,44.1051585 C100.347953,43.8352315 98.7621196,44.569684 98.9877718,46.1892461 C98.9313588,50.2569833 101.144004,54.5130417 103.206214,57.9279322 C104.986359,60.9347935 107.493605,63.1569833 109.950707,65.580049 C110.778098,66.5342096 112.16962,67.7959614 111.774728,69.189538 C111.379837,71.5812169 110.590054,74.1863264 109.048098,76.0946475 C108.333533,77.1492461 106.396685,76.7161074 105.331105,76.5466183 C102.936685,76.1825307 99.8527718,74.8705599 97.4959602,75.6426767 C95.8349095,78.0218008 94.8946921,81.0035526 93.0581341,83.2382972 C91.1087501,85.5107059 87.8932066,86.5464723 85.4235689,88.1848665 C84.9033153,88.4673483 84.6400544,88.9318738 84.6275182,89.5721658 C84.2451631,93.0121658 84.8030254,96.2512899 83.806395,99.7038446 C82.7909602,103.558151 79.8512138,106.678005 79.9828443,110.783407 C79.7759965,113.225304 82.7157428,114.418005 84.1699457,115.943407 C86.3825907,117.719903 86.2760327,121.040633 86.7085327,123.620633 Z" id="p1"></path>
                        </g>
                        <g id="p2-link" transform="translate(24.538084, 37.494745)" fill="#000000" fill-rule="nonzero" stroke="#F6F6F5">
                            <path d="M45.9280751,0 C51.4314809,4.12423358 54.9666983,10.269781 55.7815534,17.1058394 C56.3143432,20.6964964 55.706336,24.3687591 56.195249,27.9405839 C59.1099229,29.7233577 62.8269157,30.5080292 65.6914447,32.8118248 C68.5622418,35.1470073 71.1509737,38.2040876 72.523691,41.6691971 C73.5641983,44.4249635 73.2884012,47.4067153 71.3390171,49.6916788 C68.631191,52.8931387 64.0554664,53.6527007 60.2820606,54.939562 C60.3823505,59.2583942 61.3915171,63.4767883 60.5703939,67.5633577 C60.0125316,70.4635036 58.6022055,72.7108029 57.4802128,75.3724088 C56.032278,78.5048175 56.3331476,82.7106569 58.0130026,85.6861314 C59.492278,87.3182482 61.7487997,88.2159124 63.2406113,89.8919708 C63.6480389,90.7582482 63.6731113,91.8442336 63.6355026,92.7921168 C62.2189084,94.1919708 60.087749,94.0978102 58.2449229,94.110365 C56.6214809,94.0475912 54.6219519,93.959708 53.1990896,93.0871533 C51.1995606,91.059562 50.9676403,86.9855474 48.6421693,85.14 C46.8494881,83.9347445 44.7935461,83.2630657 43.0510099,81.9573723 C42.5746331,79.1262774 43.2139809,75.8369343 42.4492708,72.9807299 C41.596807,69.9362044 39.2650679,67.2934307 36.3127853,66.1321168 C34.1440171,65.3976642 31.9877853,65.7680292 29.7939447,66.1572263 C32.0567345,67.2055474 34.2004302,68.5112409 36.3817345,69.7164964 C39.1146331,71.160292 39.8605389,74.82 39.8981476,77.6385401 C39.6411548,80.7583942 37.9048867,83.7589781 36.4820244,86.4394161 C39.4969881,86.6340146 42.8880389,86.4143066 45.4767708,88.259854 C46.9059012,89.5843796 47.6643432,91.7061314 48.3914447,93.470073 C42.0042345,94.5058394 35.215865,93.8718248 28.7409012,94.0224818 C24.9110824,93.959708 20.943365,94.330073 17.1574229,93.7588321 C13.7287635,93.0934307 11.9924954,89.8166423 10.1371331,87.2178102 C7.62361858,87.0608759 4.3265896,87.4437956 2.37093742,85.5856934 C-0.0297509811,83.3948905 -0.875946633,78.7182482 1.09850989,76.050365 C2.68434322,74.5061314 5.64916206,74.4559124 7.70510409,73.909781 C8.25669829,70.5576642 8.51369105,67.3624818 10.0681838,64.2677372 C13.2022418,57.8648175 18.4173142,52.5667153 25.1116621,49.9553285 C29.3614447,48.0909489 34.244307,47.6829197 38.3311186,45.5548905 C40.5312273,44.4249635 40.9010461,41.9516788 41.5090534,39.7859854 C41.9666258,37.5637956 42.7250679,35.1658394 42.5997055,32.8871533 C42.1107925,31.3554745 40.5625679,30.0937226 39.5032563,28.9261314 C36.2375679,25.749781 33.648836,22.1528467 31.6116983,18.0788321 C29.4805389,13.860438 27.7066621,8.90759124 28.4651041,4.1179562 C28.6280751,3.1010219 29.5369519,2.32890511 30.5774592,2.4670073 C32.3262635,2.68043796 34.031191,3.78525547 35.435249,4.80218978 C38.7009374,7.27547445 41.4275679,10.6087591 43.8784012,13.8729927 C47.2005026,18.3236496 49.275249,23.1760584 51.4565534,28.2356204 C52.0645606,28.1979562 52.6161548,28.009635 53.1238722,27.6706569 C52.1836548,23.8037956 51.2371693,20.1189781 49.2251041,16.6413139 C47.488836,13.490073 44.6556476,10.4141606 43.6778215,6.96788321 C42.894307,4.26233577 44.3171693,2.03386861 45.9280751,0 Z M57.7810824,36.7477372 C56.5399954,37.620292 56.1889809,38.9887591 57.060249,40.2756204 C57.8061548,42.5417518 61.8240171,41.3929927 61.6673142,39.1017518 C61.9180389,37.0992701 59.3230389,35.2725547 57.7810824,36.7477372 Z" id="p2"></path>
                        </g>
                        <g id="p3-link" transform="translate(116.862754, 48.241606)" fill="#000000" fill-rule="nonzero" stroke="#F6F6F5">
                            <path d="M2.77050725,0 C9.35202899,4.06773723 11.514529,11.6194161 11.188587,18.9890511 C8.71894928,17.4950365 6.98268116,15.4925547 5.70398551,12.9188321 C4.13068841,9.72364964 1.25362319,7.1750365 0,3.87313869 C0.0877536232,2.43562044 1.7676087,0.954160584 2.77050725,0 Z" id="p3"></path>
                        </g>
                        <g id="p4-link" transform="translate(85.380175, 51.256541)" fill="#000000" fill-rule="nonzero" stroke="#F6F6F5">
                            <path d="M21.7607313,0.0547000744 C24.4309486,0.487838761 26.9946081,1.92535701 29.0818907,3.60769278 C34.1214559,7.69426212 36.3717095,13.0425833 38.8413472,18.8428753 C43.0535211,19.2383497 46.9773617,19.4078388 50.8385211,21.3601015 C55.4330501,23.5006855 58.2348979,28.214992 60.240695,32.665649 C61.2059849,34.8376198 61.3877602,37.0347001 59.9084849,39.0246271 C57.3949704,42.5336782 52.8819269,43.3309045 49.0082313,44.4608315 C48.563195,49.4513424 48.9768907,54.8373278 46.3129414,59.3068169 C44.6894994,62.2132402 42.1571805,63.8579118 39.9821443,66.2244811 C38.5404776,67.6117804 38.7912023,69.9092986 39.317724,71.6481307 C40.2328689,73.4497366 42.5583399,74.654992 43.8558399,76.1741161 C44.3196805,76.6763059 44.181782,77.5865249 44.0062747,78.1828753 C43.5236298,79.3692986 41.749753,79.4320723 40.6653689,79.6329482 C38.6344994,79.7961599 36.020695,79.9028753 34.2217457,78.7980577 C31.8461298,76.8960139 31.0563472,73.03543 29.0254776,70.8069628 C26.5683762,70.4177658 23.6599704,72.1314884 21.4974704,73.1923643 C22.613195,74.215576 23.691311,75.295284 24.6189921,76.4942621 C24.9512023,77.9066709 24.4810936,79.4006855 22.8451153,79.5325103 C17.529753,80.0598096 12.0764921,79.5890066 6.73605734,79.5701745 C6.30355734,76.9901745 6.41011531,73.6694446 4.19747038,71.8929482 C2.74326748,70.3675468 -0.196478893,69.1748461 0.0103689334,66.7329482 C-0.121261501,62.6275468 2.81848488,59.5076928 3.83391966,55.6533862 C4.83055009,52.2008315 4.27268777,48.9617074 4.65504285,45.5217074 C4.66757908,44.8814154 4.93083995,44.4168899 5.45109357,44.1344081 C7.92073125,42.4960139 11.1362747,41.4602475 13.0856588,39.1878388 C14.9222168,36.9530942 15.8624342,33.9713424 17.5234849,31.5922183 C19.8802965,30.8201015 22.9642095,32.1320723 25.3586298,32.4961599 C26.4242095,32.665649 28.3610573,33.0987877 29.0756226,32.0441891 C30.6175791,30.135868 31.4073617,27.5307585 31.802253,25.1390796 C32.1971443,23.745503 30.8056226,22.4837512 29.9782313,21.5295906 C27.5211298,19.1065249 25.0138834,16.8843351 23.2337385,13.8774738 C21.1715284,10.4625833 18.9588834,6.20652489 19.0152965,2.13878767 C18.7896443,0.519225622 20.3754776,-0.215226933 21.7607313,0.0547000744 Z M47.1779414,28.0643351 C46.3254776,29.7906125 46.3881588,30.8640431 47.2907675,32.5401015 C49.4783399,32.8288607 50.130224,32.2387877 51.0391008,30.3116344 C50.3057313,28.1836052 49.3404414,27.8383497 47.1779414,28.0643351 Z" id="p4"></path>
                        </g>
                        <g id="p5-link" transform="translate(81.116287, 73.706240)" fill="#000000" fill-rule="nonzero" stroke="#F8B189">
                            <path d="M1.20287949,0.536241522 C2.74483601,-0.938940959 5.33983601,0.887774369 5.08911137,2.89025612 C5.24581427,5.181497 1.22795195,6.33025612 0.482046157,4.06412473 C-0.389221959,2.77726342 -0.0382074663,1.40879627 1.20287949,0.536241522 Z" id="p5"></path>
                        </g>
                        <g id="p6-link" transform="translate(131.954733, 79.261092)" fill="#000000" fill-rule="nonzero" stroke="#F8B189">
                            <path d="M0.603383337,0.0597839126 C2.76588334,-0.166201489 3.73117319,0.179053986 4.46454276,2.30708318 C3.55566595,4.23423647 2.90378189,4.82430946 0.716209424,4.53555034 C-0.186399271,2.85949194 -0.249080431,1.78606128 0.603383337,0.0597839126 Z" id="p6"></path>
                        </g>
                    </g>
                    <g>
                        <g id="p0-link" fill="#F6F6F5" fill-rule="nonzero">
                            <path d="M0,0 L173,0 L173,172 L0,172 L0,0 Z M5.76039855,50.2189781 C4.84525362,62.2213139 6.02365942,74.0164964 5.82307971,86 C5.90456522,101.693431 5.72278986,117.399416 5.87949275,133.092847 C6.08634058,147.725401 17.9957609,160.625401 32.167971,163.16146 C36.004058,163.814307 40.166087,163.550657 44.0648551,163.563212 C69.9082971,163.512993 95.7580072,163.588321 121.601449,163.550657 C128.740833,163.487883 135.265942,164.11562 142.248623,162.125693 C149.801703,160.229927 156.025942,155.000876 160.350942,148.667007 C163.998986,143.281022 165.233804,137.016204 165.196196,130.594453 C165.152319,101.705985 165.164855,72.8237956 165.171123,43.9416058 C165.146051,39.3967883 165.572283,35.2788321 164.086739,30.8972263 C161.823949,24.5508029 158.940616,18.700292 153.462283,14.5383942 C147.833514,9.93708029 141.145435,8.26729927 134.068732,7.43868613 C129.95058,7.04948905 125.738406,7.26919708 121.601449,7.25664234 C94.6485507,7.22525547 67.6893841,7.26919708 40.7364855,7.23153285 C32.5628623,7.2189781 24.5584783,9.24029197 17.9832246,14.2433577 C12.4046014,18.3048175 8.77536232,24.3059854 6.9576087,30.9035036 C5.24014493,36.9611679 6.09887681,43.86 5.76039855,50.2189781 Z" id="p0"></path>
                        </g>
                        <g id="p1-link" transform="translate(5.407699, 7.206082)" fill="#F8B189" fill-rule="nonzero">
                            <path d="M35.3287863,0.0254504398 C62.2816849,0.0631146734 89.2408515,0.0191730676 116.19375,0.0505599289 C120.330707,0.0631146734 124.542881,-0.156593356 128.661033,0.232603725 C135.737736,1.06121686 142.425815,2.73099789 148.054583,7.33231175 C153.532917,11.4942096 156.41625,17.3447205 158.67904,23.6911439 C160.164583,28.0727497 159.738352,32.1907059 159.763424,36.7355234 C159.757156,65.6177132 159.74462,94.499903 159.788496,123.38837 C159.826105,129.810122 158.591286,136.074939 154.943243,141.460925 C150.618243,147.794794 144.394004,153.023845 136.840924,154.919611 C129.858243,156.909538 123.333134,156.281801 116.19375,156.344575 C90.350308,156.382239 64.5005979,156.30691 38.6571559,156.357129 C34.7583878,156.344575 30.5963588,156.608224 26.7602718,155.955377 C12.5880617,153.419319 0.67864138,140.519319 0.471793554,125.886764 C0.315090655,110.193334 0.496866018,94.4873483 0.41538051,78.7939176 C0.615960221,66.8104139 -0.562445577,55.0152315 0.352699351,43.0128957 C0.691177612,36.6539176 -0.167554272,29.7550855 1.5499095,23.6974212 C3.36766312,17.099903 6.99690225,11.0987351 12.5755254,7.03727526 C19.1507791,2.03420956 27.1551631,0.0128956953 35.3287863,0.0254504398 Z M72.2542573,57.9593191 C71.7465399,58.2982972 71.1949457,58.4866183 70.5869385,58.5242826 C68.4056341,53.4647205 66.3308878,48.6123118 63.0087863,44.1616548 C60.557953,40.8974212 57.8313225,37.5641366 54.5656341,35.0908519 C53.1615762,34.0739176 51.4566486,32.9691001 49.7078443,32.7556694 C48.667337,32.6175672 47.7584602,33.389684 47.5954892,34.4066183 C46.8370472,39.1962534 48.610924,44.1491001 50.7420834,48.3674942 C52.7792211,52.4415088 55.367953,56.0384431 58.6336414,59.2147935 C59.692953,60.3823847 61.2411776,61.6441366 61.7300907,63.1758154 C61.855453,65.4545015 61.0970109,67.8524577 60.6394385,70.0746475 C60.0314312,72.240341 59.6616124,74.7136256 57.4615037,75.8435526 C53.3746921,77.9715818 48.4918298,78.379611 44.2420472,80.2439906 C37.5476994,82.8553774 32.3326269,88.1534796 29.1985689,94.5563993 C27.6440762,97.6511439 27.3870834,100.846326 26.8354892,104.198443 C24.7795472,104.744575 21.8147283,104.794794 20.228895,106.339027 C18.2544385,109.00691 19.1006341,113.683553 21.5013225,115.874356 C23.4569747,117.732458 26.7540037,117.349538 29.2675182,117.506472 C31.1228805,120.105304 32.8591486,123.382093 36.287808,124.047494 C40.0737501,124.618735 44.0414675,124.24837 47.8712863,124.311144 C54.3462501,124.160487 61.1346196,124.794502 67.5218298,123.758735 C66.7947283,121.994794 66.0362863,119.873042 64.6071559,118.548516 C62.018424,116.702969 58.6273733,116.922677 55.6124095,116.728078 C57.0352718,114.04764 58.7715399,111.047056 59.0285327,107.927202 C58.990924,105.108662 58.2450182,101.448954 55.5121196,100.005158 C53.3308153,98.799903 51.1871196,97.4942096 48.9243298,96.4458884 C51.1181704,96.0566913 53.2744022,95.6863264 55.4431704,96.4207789 C58.395453,97.5820928 60.7271921,100.224866 61.5796559,103.269392 C62.344366,106.125596 61.7050182,109.414939 62.181395,112.246034 C63.9239312,113.551728 65.9798733,114.223407 67.7725544,115.428662 C70.0980254,117.27421 70.3299457,121.348224 72.3294747,123.375815 C73.752337,124.24837 75.751866,124.336253 77.375308,124.399027 C79.2181341,124.386472 81.3492936,124.480633 82.7658878,123.080779 C82.8034965,122.132896 82.778424,121.04691 82.3709965,120.180633 C80.8791849,118.504575 78.6226631,117.60691 77.1433878,115.974794 C75.4635327,112.999319 75.1626631,108.79348 76.6105979,105.661071 C77.7325907,102.999465 79.1429167,100.752166 79.7007791,97.8520198 C80.5219022,93.7654504 79.5127356,89.5470563 79.4124457,85.2282242 C83.1858515,83.9413628 87.7615762,83.1818008 90.4694022,79.980341 C92.4187863,77.6953774 92.6945834,74.7136256 91.6540762,71.9578592 C90.2813588,68.4927497 87.6926269,65.4356694 84.8218298,63.1004869 C81.9573008,60.7966913 78.240308,60.0120198 75.3256341,58.2292461 C74.8367211,54.6574212 75.4447283,50.9851585 74.9119385,47.3945015 C74.0970834,40.5584431 70.561866,34.4128957 65.0584602,30.2886621 C63.4475544,32.3225307 62.0246921,34.5509979 62.8082066,37.2565453 C63.7860327,40.7028227 66.6192211,43.7787351 68.3554892,46.929976 C70.3675544,50.4076402 71.3140399,54.0924577 72.2542573,57.9593191 Z M122.643641,60.0245745 C122.969583,52.6549395 120.807083,45.1032607 114.225562,41.0355234 C113.222663,41.989684 111.542808,43.4711439 111.455054,44.9086621 C112.708678,48.2105599 115.585743,50.7591731 117.15904,53.9543555 C118.437736,56.5280782 120.174004,58.5305599 122.643641,60.0245745 Z M86.7085327,123.620633 C92.0489675,123.639465 97.5022283,124.110268 102.817591,123.582969 C104.453569,123.451144 104.923678,121.957129 104.591467,120.544721 C103.663786,119.345742 102.58567,118.266034 101.469946,117.242823 C103.632446,116.181947 106.540852,114.468224 108.997953,114.857421 C111.028823,117.085888 111.818605,120.946472 114.194221,122.848516 C115.99317,123.953334 118.606975,123.846618 120.637844,123.683407 C121.722228,123.482531 123.496105,123.419757 123.97875,122.233334 C124.154257,121.636983 124.292156,120.726764 123.828315,120.224575 C122.530815,118.70545 120.205344,117.500195 119.290199,115.698589 C118.763678,113.959757 118.512953,111.662239 119.95462,110.274939 C122.129656,107.90837 124.661975,106.263699 126.285417,103.357275 C128.949366,98.8877862 128.53567,93.5018008 128.980707,88.5112899 C132.854402,87.3813628 137.367446,86.5841366 139.88096,83.0750855 C141.360236,81.0851585 141.17846,78.8880782 140.21317,76.7161074 C138.207373,72.2654504 135.405525,67.5511439 130.810996,65.4105599 C126.949837,63.4582972 123.025996,63.2888081 118.813823,62.8933337 C116.344185,57.0930417 114.093931,51.7447205 109.054366,47.6581512 C106.967083,45.9758154 104.403424,44.5382972 101.733207,44.1051585 C100.347953,43.8352315 98.7621196,44.569684 98.9877718,46.1892461 C98.9313588,50.2569833 101.144004,54.5130417 103.206214,57.9279322 C104.986359,60.9347935 107.493605,63.1569833 109.950707,65.580049 C110.778098,66.5342096 112.16962,67.7959614 111.774728,69.189538 C111.379837,71.5812169 110.590054,74.1863264 109.048098,76.0946475 C108.333533,77.1492461 106.396685,76.7161074 105.331105,76.5466183 C102.936685,76.1825307 99.8527718,74.8705599 97.4959602,75.6426767 C95.8349095,78.0218008 94.8946921,81.0035526 93.0581341,83.2382972 C91.1087501,85.5107059 87.8932066,86.5464723 85.4235689,88.1848665 C84.9033153,88.4673483 84.6400544,88.9318738 84.6275182,89.5721658 C84.2451631,93.0121658 84.8030254,96.2512899 83.806395,99.7038446 C82.7909602,103.558151 79.8512138,106.678005 79.9828443,110.783407 C79.7759965,113.225304 82.7157428,114.418005 84.1699457,115.943407 C86.3825907,117.719903 86.2760327,121.040633 86.7085327,123.620633 Z" id="p1"></path>
                        </g>
                        <g id="p2-link" transform="translate(24.538084, 37.494745)" fill="#F6F6F5" fill-rule="nonzero">
                            <path d="M45.9280751,0 C51.4314809,4.12423358 54.9666983,10.269781 55.7815534,17.1058394 C56.3143432,20.6964964 55.706336,24.3687591 56.195249,27.9405839 C59.1099229,29.7233577 62.8269157,30.5080292 65.6914447,32.8118248 C68.5622418,35.1470073 71.1509737,38.2040876 72.523691,41.6691971 C73.5641983,44.4249635 73.2884012,47.4067153 71.3390171,49.6916788 C68.631191,52.8931387 64.0554664,53.6527007 60.2820606,54.939562 C60.3823505,59.2583942 61.3915171,63.4767883 60.5703939,67.5633577 C60.0125316,70.4635036 58.6022055,72.7108029 57.4802128,75.3724088 C56.032278,78.5048175 56.3331476,82.7106569 58.0130026,85.6861314 C59.492278,87.3182482 61.7487997,88.2159124 63.2406113,89.8919708 C63.6480389,90.7582482 63.6731113,91.8442336 63.6355026,92.7921168 C62.2189084,94.1919708 60.087749,94.0978102 58.2449229,94.110365 C56.6214809,94.0475912 54.6219519,93.959708 53.1990896,93.0871533 C51.1995606,91.059562 50.9676403,86.9855474 48.6421693,85.14 C46.8494881,83.9347445 44.7935461,83.2630657 43.0510099,81.9573723 C42.5746331,79.1262774 43.2139809,75.8369343 42.4492708,72.9807299 C41.596807,69.9362044 39.2650679,67.2934307 36.3127853,66.1321168 C34.1440171,65.3976642 31.9877853,65.7680292 29.7939447,66.1572263 C32.0567345,67.2055474 34.2004302,68.5112409 36.3817345,69.7164964 C39.1146331,71.160292 39.8605389,74.82 39.8981476,77.6385401 C39.6411548,80.7583942 37.9048867,83.7589781 36.4820244,86.4394161 C39.4969881,86.6340146 42.8880389,86.4143066 45.4767708,88.259854 C46.9059012,89.5843796 47.6643432,91.7061314 48.3914447,93.470073 C42.0042345,94.5058394 35.215865,93.8718248 28.7409012,94.0224818 C24.9110824,93.959708 20.943365,94.330073 17.1574229,93.7588321 C13.7287635,93.0934307 11.9924954,89.8166423 10.1371331,87.2178102 C7.62361858,87.0608759 4.3265896,87.4437956 2.37093742,85.5856934 C-0.0297509811,83.3948905 -0.875946633,78.7182482 1.09850989,76.050365 C2.68434322,74.5061314 5.64916206,74.4559124 7.70510409,73.909781 C8.25669829,70.5576642 8.51369105,67.3624818 10.0681838,64.2677372 C13.2022418,57.8648175 18.4173142,52.5667153 25.1116621,49.9553285 C29.3614447,48.0909489 34.244307,47.6829197 38.3311186,45.5548905 C40.5312273,44.4249635 40.9010461,41.9516788 41.5090534,39.7859854 C41.9666258,37.5637956 42.7250679,35.1658394 42.5997055,32.8871533 C42.1107925,31.3554745 40.5625679,30.0937226 39.5032563,28.9261314 C36.2375679,25.749781 33.648836,22.1528467 31.6116983,18.0788321 C29.4805389,13.860438 27.7066621,8.90759124 28.4651041,4.1179562 C28.6280751,3.1010219 29.5369519,2.32890511 30.5774592,2.4670073 C32.3262635,2.68043796 34.031191,3.78525547 35.435249,4.80218978 C38.7009374,7.27547445 41.4275679,10.6087591 43.8784012,13.8729927 C47.2005026,18.3236496 49.275249,23.1760584 51.4565534,28.2356204 C52.0645606,28.1979562 52.6161548,28.009635 53.1238722,27.6706569 C52.1836548,23.8037956 51.2371693,20.1189781 49.2251041,16.6413139 C47.488836,13.490073 44.6556476,10.4141606 43.6778215,6.96788321 C42.894307,4.26233577 44.3171693,2.03386861 45.9280751,0 Z M57.7810824,36.7477372 C56.5399954,37.620292 56.1889809,38.9887591 57.060249,40.2756204 C57.8061548,42.5417518 61.8240171,41.3929927 61.6673142,39.1017518 C61.9180389,37.0992701 59.3230389,35.2725547 57.7810824,36.7477372 Z" id="p2"></path>
                        </g>
                        <g id="p3-link" transform="translate(116.862754, 48.241606)" fill="#F6F6F5" fill-rule="nonzero">
                            <path d="M2.77050725,0 C9.35202899,4.06773723 11.514529,11.6194161 11.188587,18.9890511 C8.71894928,17.4950365 6.98268116,15.4925547 5.70398551,12.9188321 C4.13068841,9.72364964 1.25362319,7.1750365 0,3.87313869 C0.0877536232,2.43562044 1.7676087,0.954160584 2.77050725,0 Z" id="p3"></path>
                        </g>
                        <g id="p4-link" transform="translate(85.380175, 51.256541)" fill="#F6F6F5" fill-rule="nonzero">
                            <path d="M21.7607313,0.0547000744 C24.4309486,0.487838761 26.9946081,1.92535701 29.0818907,3.60769278 C34.1214559,7.69426212 36.3717095,13.0425833 38.8413472,18.8428753 C43.0535211,19.2383497 46.9773617,19.4078388 50.8385211,21.3601015 C55.4330501,23.5006855 58.2348979,28.214992 60.240695,32.665649 C61.2059849,34.8376198 61.3877602,37.0347001 59.9084849,39.0246271 C57.3949704,42.5336782 52.8819269,43.3309045 49.0082313,44.4608315 C48.563195,49.4513424 48.9768907,54.8373278 46.3129414,59.3068169 C44.6894994,62.2132402 42.1571805,63.8579118 39.9821443,66.2244811 C38.5404776,67.6117804 38.7912023,69.9092986 39.317724,71.6481307 C40.2328689,73.4497366 42.5583399,74.654992 43.8558399,76.1741161 C44.3196805,76.6763059 44.181782,77.5865249 44.0062747,78.1828753 C43.5236298,79.3692986 41.749753,79.4320723 40.6653689,79.6329482 C38.6344994,79.7961599 36.020695,79.9028753 34.2217457,78.7980577 C31.8461298,76.8960139 31.0563472,73.03543 29.0254776,70.8069628 C26.5683762,70.4177658 23.6599704,72.1314884 21.4974704,73.1923643 C22.613195,74.215576 23.691311,75.295284 24.6189921,76.4942621 C24.9512023,77.9066709 24.4810936,79.4006855 22.8451153,79.5325103 C17.529753,80.0598096 12.0764921,79.5890066 6.73605734,79.5701745 C6.30355734,76.9901745 6.41011531,73.6694446 4.19747038,71.8929482 C2.74326748,70.3675468 -0.196478893,69.1748461 0.0103689334,66.7329482 C-0.121261501,62.6275468 2.81848488,59.5076928 3.83391966,55.6533862 C4.83055009,52.2008315 4.27268777,48.9617074 4.65504285,45.5217074 C4.66757908,44.8814154 4.93083995,44.4168899 5.45109357,44.1344081 C7.92073125,42.4960139 11.1362747,41.4602475 13.0856588,39.1878388 C14.9222168,36.9530942 15.8624342,33.9713424 17.5234849,31.5922183 C19.8802965,30.8201015 22.9642095,32.1320723 25.3586298,32.4961599 C26.4242095,32.665649 28.3610573,33.0987877 29.0756226,32.0441891 C30.6175791,30.135868 31.4073617,27.5307585 31.802253,25.1390796 C32.1971443,23.745503 30.8056226,22.4837512 29.9782313,21.5295906 C27.5211298,19.1065249 25.0138834,16.8843351 23.2337385,13.8774738 C21.1715284,10.4625833 18.9588834,6.20652489 19.0152965,2.13878767 C18.7896443,0.519225622 20.3754776,-0.215226933 21.7607313,0.0547000744 Z M47.1779414,28.0643351 C46.3254776,29.7906125 46.3881588,30.8640431 47.2907675,32.5401015 C49.4783399,32.8288607 50.130224,32.2387877 51.0391008,30.3116344 C50.3057313,28.1836052 49.3404414,27.8383497 47.1779414,28.0643351 Z" id="p4"></path>
                        </g>
                        <g id="p5-link" transform="translate(81.116287, 73.706240)" fill="#F8B189" fill-rule="nonzero">
                            <path d="M1.20287949,0.536241522 C2.74483601,-0.938940959 5.33983601,0.887774369 5.08911137,2.89025612 C5.24581427,5.181497 1.22795195,6.33025612 0.482046157,4.06412473 C-0.389221959,2.77726342 -0.0382074663,1.40879627 1.20287949,0.536241522 Z" id="p5"></path>
                        </g>
                        <g id="p6-link" transform="translate(131.954733, 79.261092)" fill="#F8B189" fill-rule="nonzero">
                            <path d="M0.603383337,0.0597839126 C2.76588334,-0.166201489 3.73117319,0.179053986 4.46454276,2.30708318 C3.55566595,4.23423647 2.90378189,4.82430946 0.716209424,4.53555034 C-0.186399271,2.85949194 -0.249080431,1.78606128 0.603383337,0.0597839126 Z" id="p6"></path>
                        </g>
                    </g>
                </g>
            </g>
        </g>
    </g>
</svg>